<?xml version="1.0" standalone="no"?>
<!DOCTYPE svg PUBLIC "-//W3C//DTD SVG 20010904//EN"
 "http://www.w3.org/TR/2001/REC-SVG-20010904/DTD/svg10.dtd">
<svg version="1.0" xmlns="http://www.w3.org/2000/svg"
 width="256.000000pt" height="256.000000pt" viewBox="0 0 256.000000 256.000000"
 preserveAspectRatio="xMidYMid meet">
<metadata>
Created by potrace 1.14, written by Peter Selinger 2001-2017
</metadata>
<g transform="translate(0.000000,256.000000) scale(0.100000,-0.100000)"
fill="#000000" stroke="none">
<path d="M2010 2535 c-126 -33 -214 -120 -246 -245 -40 -157 39 -316 194 -388
48 -23 71 -27 147 -27 77 0 98 4 147 27 71 33 148 108 179 174 35 75 33 199
-5 274 -26 51 -127 163 -144 158 -4 -1 -16 3 -27 9 -29 16 -126 34 -166 32
-19 -2 -54 -8 -79 -14z"/>
<path d="M1100 2170 c-114 -22 -180 -44 -289 -99 -102 -51 -158 -89 -236 -160
-189 -174 -300 -374 -349 -631 -23 -121 -15 -331 18 -455 30 -109 106 -277
159 -350 82 -113 192 -223 280 -282 95 -63 231 -129 307 -148 8 -3 42 -11 75
-20 73 -19 326 -28 410 -14 304 50 578 229 749 492 57 87 113 216 142 325 32
119 40 321 18 447 -27 156 -94 322 -179 441 l-44 61 -85 5 c-72 5 -97 12 -161
43 -110 55 -207 170 -230 274 -4 17 -9 31 -11 31 -3 0 -39 9 -82 20 -116 29
-136 31 -272 35 -91 2 -151 -2 -220 -15z"/>
</g>
</svg>
