<?xml version="1.0" standalone="no"?>
<!DOCTYPE svg PUBLIC "-//W3C//DTD SVG 20010904//EN"
 "http://www.w3.org/TR/2001/REC-SVG-20010904/DTD/svg10.dtd">
<svg version="1.0" xmlns="http://www.w3.org/2000/svg"
 width="256.000000pt" height="256.000000pt" viewBox="0 0 256.000000 256.000000"
 preserveAspectRatio="xMidYMid meet">
<metadata>
Created by potrace 1.14, written by Peter Selinger 2001-2017
</metadata>
<g transform="translate(0.000000,256.000000) scale(0.100000,-0.100000)"
fill="#000000" stroke="none">
<path d="M1148 2505 c-1 -1 -23 -6 -48 -9 -199 -27 -402 -107 -565 -225 -197
-142 -354 -343 -449 -575 -23 -55 -64 -211 -73 -276 -12 -85 -8 -337 6 -415
21 -110 85 -292 136 -385 120 -217 311 -409 514 -514 39 -20 72 -33 72 -29 5
28 3 793 -2 793 -3 0 -19 -16 -36 -34 -17 -19 -62 -69 -100 -111 l-70 -75
-129 96 c-71 54 -131 98 -133 100 -3 3 62 89 79 104 3 3 41 48 85 100 147 176
289 345 295 350 3 3 25 30 50 60 25 30 47 57 50 60 3 3 39 46 80 95 41 50 90
108 110 130 19 23 51 61 72 85 20 25 48 59 63 75 14 17 47 56 72 88 25 31 49
57 54 57 8 0 9 -1 284 -330 109 -129 207 -246 219 -260 45 -52 423 -505 465
-557 24 -30 42 -56 40 -57 -2 -2 -62 -47 -132 -99 l-129 -96 -57 62 c-32 34
-77 83 -101 110 -23 26 -45 45 -48 43 -6 -7 -6 -785 0 -792 3 -3 46 19 96 49
226 136 369 285 491 510 37 67 97 213 106 257 2 8 11 53 21 100 19 89 25 323
12 410 -67 434 -317 783 -696 974 -90 45 -259 103 -327 111 -27 4 -63 10 -80
14 -29 7 -290 13 -297 6z"/>
</g>
</svg>
